<mxfile host="app.diagrams.net" agent="Mozilla/5.0 (Windows NT 10.0; Win64; x64) AppleWebKit/537.36 (KHTML, like Gecko) Chrome/131.0.0.0 Safari/537.36" version="25.0.1">
  <diagram name="第 1 页" id="nkEOty-bVfPlOfj25dJT">
    <mxGraphModel dx="724" dy="392" grid="1" gridSize="10" guides="1" tooltips="1" connect="1" arrows="1" fold="1" page="1" pageScale="1" pageWidth="827" pageHeight="1169" math="0" shadow="0">
      <root>
        <mxCell id="0" />
        <mxCell id="1" parent="0" />
        <mxCell id="-BfA1qe5HU-dB9uuBJLc-1" value="用户社区管理功能" style="swimlane;whiteSpace=wrap;html=1;" parent="1" vertex="1">
          <mxGeometry x="324" y="110" width="280" height="410" as="geometry" />
        </mxCell>
        <mxCell id="-BfA1qe5HU-dB9uuBJLc-3" value="帖子分类功能" style="ellipse;whiteSpace=wrap;html=1;fillColor=#dae8fc;strokeColor=#6c8ebf;" parent="-BfA1qe5HU-dB9uuBJLc-1" vertex="1">
          <mxGeometry x="16" y="170" width="87.5" height="40" as="geometry" />
        </mxCell>
        <mxCell id="-BfA1qe5HU-dB9uuBJLc-4" value="帖子标签功能" style="ellipse;whiteSpace=wrap;html=1;fillColor=#dae8fc;strokeColor=#6c8ebf;" parent="-BfA1qe5HU-dB9uuBJLc-1" vertex="1">
          <mxGeometry x="16" y="230" width="87.5" height="40" as="geometry" />
        </mxCell>
        <mxCell id="-BfA1qe5HU-dB9uuBJLc-26" value="评论管理功能" style="ellipse;whiteSpace=wrap;html=1;fillColor=#dae8fc;strokeColor=#6c8ebf;" parent="-BfA1qe5HU-dB9uuBJLc-1" vertex="1">
          <mxGeometry x="16" y="300" width="87.5" height="40" as="geometry" />
        </mxCell>
        <mxCell id="-BfA1qe5HU-dB9uuBJLc-27" value="增加评论" style="ellipse;whiteSpace=wrap;html=1;fillColor=#dae8fc;strokeColor=#6c8ebf;" parent="-BfA1qe5HU-dB9uuBJLc-1" vertex="1">
          <mxGeometry x="156" y="245" width="65" height="30" as="geometry" />
        </mxCell>
        <mxCell id="-BfA1qe5HU-dB9uuBJLc-28" value="修改评论" style="ellipse;whiteSpace=wrap;html=1;fillColor=#dae8fc;strokeColor=#6c8ebf;" parent="-BfA1qe5HU-dB9uuBJLc-1" vertex="1">
          <mxGeometry x="156" y="285" width="65" height="30" as="geometry" />
        </mxCell>
        <mxCell id="-BfA1qe5HU-dB9uuBJLc-29" value="删除评论" style="ellipse;whiteSpace=wrap;html=1;fillColor=#dae8fc;strokeColor=#6c8ebf;" parent="-BfA1qe5HU-dB9uuBJLc-1" vertex="1">
          <mxGeometry x="156" y="325" width="65" height="30" as="geometry" />
        </mxCell>
        <mxCell id="-BfA1qe5HU-dB9uuBJLc-30" value="查看评论" style="ellipse;whiteSpace=wrap;html=1;fillColor=#dae8fc;strokeColor=#6c8ebf;" parent="-BfA1qe5HU-dB9uuBJLc-1" vertex="1">
          <mxGeometry x="156" y="365" width="65" height="30" as="geometry" />
        </mxCell>
        <mxCell id="-BfA1qe5HU-dB9uuBJLc-31" value="&amp;lt;&amp;lt;include&amp;gt;&amp;gt;" style="html=1;verticalAlign=bottom;labelBackgroundColor=none;endArrow=open;endFill=0;dashed=1;rounded=0;exitX=1;exitY=0.5;exitDx=0;exitDy=0;entryX=0;entryY=0.5;entryDx=0;entryDy=0;" parent="-BfA1qe5HU-dB9uuBJLc-1" source="-BfA1qe5HU-dB9uuBJLc-26" target="-BfA1qe5HU-dB9uuBJLc-27" edge="1">
          <mxGeometry x="0.0004" width="160" relative="1" as="geometry">
            <mxPoint x="82.5" y="225" as="sourcePoint" />
            <mxPoint x="113.5" y="305" as="targetPoint" />
            <mxPoint as="offset" />
          </mxGeometry>
        </mxCell>
        <mxCell id="-BfA1qe5HU-dB9uuBJLc-32" value="&amp;lt;&amp;lt;include&amp;gt;&amp;gt;" style="html=1;verticalAlign=bottom;labelBackgroundColor=none;endArrow=open;endFill=0;dashed=1;rounded=0;entryX=0;entryY=0.5;entryDx=0;entryDy=0;exitX=1;exitY=0.5;exitDx=0;exitDy=0;" parent="-BfA1qe5HU-dB9uuBJLc-1" source="-BfA1qe5HU-dB9uuBJLc-26" target="-BfA1qe5HU-dB9uuBJLc-28" edge="1">
          <mxGeometry x="0.0004" width="160" relative="1" as="geometry">
            <mxPoint x="116" y="310" as="sourcePoint" />
            <mxPoint x="155" y="275" as="targetPoint" />
            <mxPoint as="offset" />
          </mxGeometry>
        </mxCell>
        <mxCell id="-BfA1qe5HU-dB9uuBJLc-54" value="&amp;lt;&amp;lt;include&amp;gt;&amp;gt;" style="html=1;verticalAlign=bottom;labelBackgroundColor=none;endArrow=open;endFill=0;dashed=1;rounded=0;entryX=0;entryY=0.5;entryDx=0;entryDy=0;exitX=1;exitY=0.5;exitDx=0;exitDy=0;" parent="-BfA1qe5HU-dB9uuBJLc-1" source="-BfA1qe5HU-dB9uuBJLc-26" target="-BfA1qe5HU-dB9uuBJLc-29" edge="1">
          <mxGeometry x="0.0004" width="160" relative="1" as="geometry">
            <mxPoint x="64.25" y="359.31" as="sourcePoint" />
            <mxPoint x="95.25" y="359.31" as="targetPoint" />
            <mxPoint as="offset" />
          </mxGeometry>
        </mxCell>
        <mxCell id="-BfA1qe5HU-dB9uuBJLc-55" value="&amp;lt;&amp;lt;include&amp;gt;&amp;gt;" style="html=1;verticalAlign=bottom;labelBackgroundColor=none;endArrow=open;endFill=0;dashed=1;rounded=0;entryX=0;entryY=0.5;entryDx=0;entryDy=0;exitX=1;exitY=0.5;exitDx=0;exitDy=0;" parent="-BfA1qe5HU-dB9uuBJLc-1" source="-BfA1qe5HU-dB9uuBJLc-26" target="-BfA1qe5HU-dB9uuBJLc-30" edge="1">
          <mxGeometry x="0.0004" width="160" relative="1" as="geometry">
            <mxPoint x="346" y="290" as="sourcePoint" />
            <mxPoint x="377" y="290" as="targetPoint" />
            <mxPoint as="offset" />
          </mxGeometry>
        </mxCell>
        <mxCell id="-BfA1qe5HU-dB9uuBJLc-56" value="参考博客归档功能，按照分类及标签区分" style="shape=note2;boundedLbl=1;whiteSpace=wrap;html=1;size=11;verticalAlign=top;align=left;fillColor=#dae8fc;strokeColor=#6c8ebf;" parent="-BfA1qe5HU-dB9uuBJLc-1" vertex="1">
          <mxGeometry x="145" y="180" width="110" height="50" as="geometry" />
        </mxCell>
        <mxCell id="-BfA1qe5HU-dB9uuBJLc-58" value="" style="endArrow=none;dashed=1;html=1;rounded=0;exitX=1;exitY=0.5;exitDx=0;exitDy=0;entryX=0;entryY=0.5;entryDx=0;entryDy=0;entryPerimeter=0;" parent="-BfA1qe5HU-dB9uuBJLc-1" source="-BfA1qe5HU-dB9uuBJLc-3" target="-BfA1qe5HU-dB9uuBJLc-56" edge="1">
          <mxGeometry width="50" height="50" relative="1" as="geometry">
            <mxPoint x="346" y="200" as="sourcePoint" />
            <mxPoint x="448.5" y="220" as="targetPoint" />
          </mxGeometry>
        </mxCell>
        <mxCell id="-BfA1qe5HU-dB9uuBJLc-14" value="" style="endArrow=none;dashed=1;html=1;rounded=0;exitX=1;exitY=0.5;exitDx=0;exitDy=0;entryX=0;entryY=0.5;entryDx=0;entryDy=0;entryPerimeter=0;" parent="-BfA1qe5HU-dB9uuBJLc-1" source="-BfA1qe5HU-dB9uuBJLc-4" target="-BfA1qe5HU-dB9uuBJLc-56" edge="1">
          <mxGeometry width="50" height="50" relative="1" as="geometry">
            <mxPoint x="336" y="190" as="sourcePoint" />
            <mxPoint x="438.5" y="210" as="targetPoint" />
          </mxGeometry>
        </mxCell>
        <mxCell id="-BfA1qe5HU-dB9uuBJLc-17" value="普通用户" style="shape=umlActor;verticalLabelPosition=bottom;verticalAlign=top;html=1;fillColor=#f8cecc;strokeColor=#b85450;" parent="1" vertex="1">
          <mxGeometry x="224" y="270" width="30" height="60" as="geometry" />
        </mxCell>
        <mxCell id="-BfA1qe5HU-dB9uuBJLc-18" value="商家" style="shape=umlActor;verticalLabelPosition=bottom;verticalAlign=top;html=1;fillColor=#f8cecc;strokeColor=#b85450;" parent="1" vertex="1">
          <mxGeometry x="224" y="365" width="30" height="60" as="geometry" />
        </mxCell>
        <mxCell id="-BfA1qe5HU-dB9uuBJLc-19" value="管理员" style="shape=umlActor;verticalLabelPosition=bottom;verticalAlign=top;html=1;fillColor=#f8cecc;strokeColor=#b85450;" parent="1" vertex="1">
          <mxGeometry x="224" y="175" width="30" height="60" as="geometry" />
        </mxCell>
        <mxCell id="-BfA1qe5HU-dB9uuBJLc-20" value="" style="endArrow=block;endFill=0;html=1;rounded=0;fillColor=#d5e8d4;strokeColor=#82b366;exitX=0.5;exitY=0;exitDx=0;exitDy=0;exitPerimeter=0;entryX=0.5;entryY=0.5;entryDx=0;entryDy=0;entryPerimeter=0;" parent="1" source="-BfA1qe5HU-dB9uuBJLc-18" target="-BfA1qe5HU-dB9uuBJLc-17" edge="1">
          <mxGeometry width="160" relative="1" as="geometry">
            <mxPoint x="279" y="515" as="sourcePoint" />
            <mxPoint x="264" y="435" as="targetPoint" />
          </mxGeometry>
        </mxCell>
        <mxCell id="-BfA1qe5HU-dB9uuBJLc-22" value="" style="endArrow=none;html=1;rounded=0;fillColor=#d5e8d4;strokeColor=#82b366;exitX=0;exitY=0.5;exitDx=0;exitDy=0;entryX=1;entryY=0.3333333333333333;entryDx=0;entryDy=0;entryPerimeter=0;" parent="1" source="-BfA1qe5HU-dB9uuBJLc-4" target="-BfA1qe5HU-dB9uuBJLc-17" edge="1">
          <mxGeometry width="50" height="50" relative="1" as="geometry">
            <mxPoint x="414" y="220" as="sourcePoint" />
            <mxPoint x="254" y="270" as="targetPoint" />
          </mxGeometry>
        </mxCell>
        <mxCell id="-BfA1qe5HU-dB9uuBJLc-23" value="" style="endArrow=none;html=1;rounded=0;fillColor=#d5e8d4;strokeColor=#82b366;entryX=1;entryY=0.3333333333333333;entryDx=0;entryDy=0;entryPerimeter=0;exitX=0;exitY=0.5;exitDx=0;exitDy=0;" parent="1" source="-BfA1qe5HU-dB9uuBJLc-3" target="-BfA1qe5HU-dB9uuBJLc-17" edge="1">
          <mxGeometry width="50" height="50" relative="1" as="geometry">
            <mxPoint x="404" y="260" as="sourcePoint" />
            <mxPoint x="264" y="280" as="targetPoint" />
          </mxGeometry>
        </mxCell>
        <mxCell id="-BfA1qe5HU-dB9uuBJLc-24" value="" style="endArrow=none;html=1;rounded=0;fillColor=#d5e8d4;strokeColor=#82b366;entryX=1;entryY=0.3333333333333333;entryDx=0;entryDy=0;entryPerimeter=0;exitX=0;exitY=0.5;exitDx=0;exitDy=0;" parent="1" target="-BfA1qe5HU-dB9uuBJLc-19" edge="1">
          <mxGeometry width="50" height="50" relative="1" as="geometry">
            <mxPoint x="340" y="195" as="sourcePoint" />
            <mxPoint x="254" y="200" as="targetPoint" />
          </mxGeometry>
        </mxCell>
        <mxCell id="-BfA1qe5HU-dB9uuBJLc-59" value="" style="endArrow=none;html=1;rounded=0;fillColor=#d5e8d4;strokeColor=#82b366;entryX=0;entryY=0.5;entryDx=0;entryDy=0;exitX=1;exitY=0.3333333333333333;exitDx=0;exitDy=0;exitPerimeter=0;" parent="1" source="-BfA1qe5HU-dB9uuBJLc-17" edge="1">
          <mxGeometry width="50" height="50" relative="1" as="geometry">
            <mxPoint x="350" y="310" as="sourcePoint" />
            <mxPoint x="340" y="195" as="targetPoint" />
          </mxGeometry>
        </mxCell>
        <mxCell id="-BfA1qe5HU-dB9uuBJLc-60" value="" style="endArrow=none;html=1;rounded=0;fillColor=#d5e8d4;strokeColor=#82b366;exitX=0;exitY=0.5;exitDx=0;exitDy=0;entryX=1;entryY=0.3333333333333333;entryDx=0;entryDy=0;entryPerimeter=0;" parent="1" source="-BfA1qe5HU-dB9uuBJLc-26" target="-BfA1qe5HU-dB9uuBJLc-19" edge="1">
          <mxGeometry width="50" height="50" relative="1" as="geometry">
            <mxPoint x="350" y="205" as="sourcePoint" />
            <mxPoint x="270" y="220" as="targetPoint" />
          </mxGeometry>
        </mxCell>
        <mxCell id="-BfA1qe5HU-dB9uuBJLc-61" value="" style="endArrow=none;html=1;rounded=0;fillColor=#d5e8d4;strokeColor=#82b366;exitX=0;exitY=0.5;exitDx=0;exitDy=0;entryX=1;entryY=0.3333333333333333;entryDx=0;entryDy=0;entryPerimeter=0;" parent="1" source="-BfA1qe5HU-dB9uuBJLc-26" target="-BfA1qe5HU-dB9uuBJLc-17" edge="1">
          <mxGeometry width="50" height="50" relative="1" as="geometry">
            <mxPoint x="350" y="440" as="sourcePoint" />
            <mxPoint x="264" y="205" as="targetPoint" />
          </mxGeometry>
        </mxCell>
        <mxCell id="Nqt4nPXAaSWHg1HG0Vk--1" value="帖子增加功能" style="ellipse;whiteSpace=wrap;html=1;fillColor=#dae8fc;strokeColor=#6c8ebf;" vertex="1" parent="1">
          <mxGeometry x="730" y="175" width="87.5" height="40" as="geometry" />
        </mxCell>
        <mxCell id="Nqt4nPXAaSWHg1HG0Vk--2" value="帖子删除功能" style="ellipse;whiteSpace=wrap;html=1;fillColor=#dae8fc;strokeColor=#6c8ebf;" vertex="1" parent="1">
          <mxGeometry x="650" y="230" width="87.5" height="40" as="geometry" />
        </mxCell>
        <mxCell id="Nqt4nPXAaSWHg1HG0Vk--3" value="帖子修改功能" style="ellipse;whiteSpace=wrap;html=1;fillColor=#dae8fc;strokeColor=#6c8ebf;" vertex="1" parent="1">
          <mxGeometry x="710" y="270" width="87.5" height="40" as="geometry" />
        </mxCell>
        <mxCell id="Nqt4nPXAaSWHg1HG0Vk--4" value="帖子查找功能" style="ellipse;whiteSpace=wrap;html=1;fillColor=#dae8fc;strokeColor=#6c8ebf;" vertex="1" parent="1">
          <mxGeometry x="710" y="350" width="87.5" height="40" as="geometry" />
        </mxCell>
        <mxCell id="Nqt4nPXAaSWHg1HG0Vk--5" value="评论增加功能" style="ellipse;whiteSpace=wrap;html=1;fillColor=#dae8fc;strokeColor=#6c8ebf;" vertex="1" parent="1">
          <mxGeometry x="620" y="375" width="87.5" height="40" as="geometry" />
        </mxCell>
        <mxCell id="Nqt4nPXAaSWHg1HG0Vk--6" value="评论删除功能" style="ellipse;whiteSpace=wrap;html=1;fillColor=#dae8fc;strokeColor=#6c8ebf;" vertex="1" parent="1">
          <mxGeometry x="720" y="390" width="87.5" height="40" as="geometry" />
        </mxCell>
        <mxCell id="Nqt4nPXAaSWHg1HG0Vk--7" value="评论修改功能" style="ellipse;whiteSpace=wrap;html=1;fillColor=#dae8fc;strokeColor=#6c8ebf;" vertex="1" parent="1">
          <mxGeometry x="604" y="450" width="87.5" height="40" as="geometry" />
        </mxCell>
        <mxCell id="Nqt4nPXAaSWHg1HG0Vk--8" value="评论排序功能" style="ellipse;whiteSpace=wrap;html=1;fillColor=#dae8fc;strokeColor=#6c8ebf;" vertex="1" parent="1">
          <mxGeometry x="690" y="450" width="87.5" height="40" as="geometry" />
        </mxCell>
      </root>
    </mxGraphModel>
  </diagram>
</mxfile>
